<svg xmlns="http://www.w3.org/2000/svg" xmlns:xlink="http://www.w3.org/1999/xlink" width="48px" height="48px" viewBox="0 0 48 48" version="1.1">
    <g id="surface1">
        <path fill="#969696" d="M 24 48 C 37.253906 48 48 37.253906 48 24 C 48 10.746094 37.253906 0 24 0 C 10.746094 0 0 10.746094 0 24 C 0 37.253906 10.746094 48 24 48 Z M 24 12 C 25.246094 12 26.25 13.003906 26.25 14.25 L 26.25 24.75 C 26.25 25.996094 25.246094 27 24 27 C 22.753906 27 21.75 25.996094 21.75 24.75 L 21.75 14.25 C 21.75 13.003906 22.753906 12 24 12 Z M 21 33 C 21 31.34375 22.34375 30 24 30 C 25.65625 30 27 31.34375 27 33 C 27 34.65625 25.65625 36 24 36 C 22.34375 36 21 34.65625 21 33 Z M 21 33 "/>
    </g>
</svg>
