<?xml version="1.0" encoding="UTF-8"?>
<svg version="1.1" xmlns="http://www.w3.org/2000/svg" width="100" height="100">
<path d="M0 0 C5.07003027 3.04201816 9.44845096 7.39691313 11.4453125 13.0546875 C11.5230471 15.38672562 11.53498978 17.72307809 11.4453125 20.0546875 C12.0021875 20.1165625 12.5590625 20.1784375 13.1328125 20.2421875 C16.43599292 21.4027644 18.16425983 23.45682196 20.4453125 26.0546875 C20.4453125 26.7146875 20.4453125 27.3746875 20.4453125 28.0546875 C22.0953125 28.0546875 23.7453125 28.0546875 25.4453125 28.0546875 C24.1253125 28.3846875 22.8053125 28.7146875 21.4453125 29.0546875 C21.39128976 31.15857319 21.35250994 33.26285464 21.3203125 35.3671875 C21.29710938 36.53894531 21.27390625 37.71070313 21.25 38.91796875 C21.19210632 42.21862411 21.19210632 42.21862411 23.4453125 45.0546875 C23.79812146 47.60686196 24.04498627 50.05436776 24.1953125 52.6171875 C24.25074219 53.30232422 24.30617188 53.98746094 24.36328125 54.69335938 C24.47880271 56.47694071 24.47016273 58.26754171 24.4453125 60.0546875 C21.09971839 63.40028161 16.48175735 62.41000701 11.92578125 62.515625 C7.90653002 63.13813529 6.50213618 64.49220165 3.4453125 67.0546875 C0.91015625 67.515625 0.91015625 67.515625 -1.6171875 67.4296875 C-2.45378906 67.41679688 -3.29039063 67.40390625 -4.15234375 67.390625 C-6.66577742 67.03915297 -8.3694055 66.31639766 -10.5546875 65.0546875 C-11.4828125 65.8590625 -12.4109375 66.6634375 -13.3671875 67.4921875 C-18.19313534 71.67467563 -23.07443367 71.37613969 -29.234375 71.35546875 C-33.85014082 70.93733467 -36.65940377 69.4987871 -40.5546875 67.0546875 C-40.5546875 66.3946875 -40.5546875 65.7346875 -40.5546875 65.0546875 C-41.2146875 65.0546875 -41.8746875 65.0546875 -42.5546875 65.0546875 C-45.59626692 59.82697287 -47.06079474 56.12797438 -46.5546875 50.0546875 C-47.885 50.209375 -47.885 50.209375 -49.2421875 50.3671875 C-53.57950482 49.95800662 -54.78995467 48.29337453 -57.5546875 45.0546875 C-57.8846875 44.7246875 -58.2146875 44.3946875 -58.5546875 44.0546875 C-58.9986016 39.44481034 -59.11246492 35.32960731 -57.2421875 31.0546875 C-55.5546875 29.0546875 -55.5546875 29.0546875 -52.5546875 27.0546875 C-51.5646875 27.0546875 -50.5746875 27.0546875 -49.5546875 27.0546875 C-49.461875 25.724375 -49.461875 25.724375 -49.3671875 24.3671875 C-48.10028567 19.2021262 -44.85527553 16.92174618 -40.5546875 14.0546875 C-38.9318458 13.96116781 -37.30521409 13.92474669 -35.6796875 13.9296875 C-31.85029577 13.66975811 -31.85029577 13.66975811 -28.96484375 11.35546875 C-28.14874674 9.94489851 -27.37095081 8.51147866 -26.6328125 7.05859375 C-21.68788318 -2.13252488 -8.91122307 -3.29742505 0 0 Z " fill="#BFE0D9" transform="translate(67.5546875,14.9453125)"/>
<path d="M0 0 C5.07003027 3.04201816 9.44845096 7.39691313 11.4453125 13.0546875 C11.5230471 15.38672562 11.53498978 17.72307809 11.4453125 20.0546875 C12.0021875 20.1165625 12.5590625 20.1784375 13.1328125 20.2421875 C16.43599292 21.4027644 18.16425983 23.45682196 20.4453125 26.0546875 C20.4453125 26.7146875 20.4453125 27.3746875 20.4453125 28.0546875 C22.0953125 28.0546875 23.7453125 28.0546875 25.4453125 28.0546875 C24.1253125 28.3846875 22.8053125 28.7146875 21.4453125 29.0546875 C21.39128976 31.15857319 21.35250994 33.26285464 21.3203125 35.3671875 C21.29710937 36.53894531 21.27390625 37.71070313 21.25 38.91796875 C21.19210632 42.21862411 21.19210632 42.21862411 23.4453125 45.0546875 C23.70291529 47.74921271 23.53431303 50.34017125 23.4453125 53.0546875 C21.7953125 53.0546875 20.1453125 53.0546875 18.4453125 53.0546875 C18.1153125 52.0646875 17.7853125 51.0746875 17.4453125 50.0546875 C14.4753125 50.5496875 14.4753125 50.5496875 11.4453125 51.0546875 C11.4453125 52.0446875 11.4453125 53.0346875 11.4453125 54.0546875 C12.0434375 54.1990625 12.6415625 54.3434375 13.2578125 54.4921875 C15.00681654 54.9419314 16.73208273 55.48361091 18.4453125 56.0546875 C18.9403125 58.5296875 18.9403125 58.5296875 19.4453125 61.0546875 C0.69580174 62.45390472 0.69580174 62.45390472 -6.5546875 61.0546875 C-7.2146875 60.3946875 -7.8746875 59.7346875 -8.5546875 59.0546875 C-8.1796875 56.4296875 -8.1796875 56.4296875 -7.5546875 54.0546875 C-5.9046875 54.0546875 -4.2546875 54.0546875 -2.5546875 54.0546875 C-3.0496875 53.5596875 -3.0496875 53.5596875 -3.5546875 53.0546875 C-3.5546875 51.7346875 -3.5546875 50.4146875 -3.5546875 49.0546875 C-2.5646875 48.5596875 -2.5646875 48.5596875 -1.5546875 48.0546875 C-3.8646875 47.3946875 -6.1746875 46.7346875 -8.5546875 46.0546875 C-8.8046875 43.8046875 -8.8046875 43.8046875 -8.5546875 41.0546875 C-6.6796875 38.9296875 -6.6796875 38.9296875 -4.5546875 37.0546875 C-3.8946875 36.0646875 -3.2346875 35.0746875 -2.5546875 34.0546875 C-3.0496875 33.5596875 -3.0496875 33.5596875 -3.5546875 33.0546875 C-3.59549533 31.05510386 -3.59723106 29.05423496 -3.5546875 27.0546875 C-2.8946875 27.0546875 -2.2346875 27.0546875 -1.5546875 27.0546875 C-1.8846875 26.3946875 -2.2146875 25.7346875 -2.5546875 25.0546875 C-2.2246875 24.0646875 -1.8946875 23.0746875 -1.5546875 22.0546875 C-0.8946875 21.7246875 -0.2346875 21.3946875 0.4453125 21.0546875 C-1.10458991 15.66525411 -2.49164046 11.11773454 -6.5546875 7.0546875 C-8.65458402 5.87894039 -8.65458402 5.87894039 -10.5546875 5.0546875 C-10.8846875 4.3946875 -11.2146875 3.7346875 -11.5546875 3.0546875 C-15.61627563 2.62200149 -15.61627563 2.62200149 -19.1171875 4.3046875 C-19.82875 5.1709375 -19.82875 5.1709375 -20.5546875 6.0546875 C-21.3796875 6.6940625 -22.2046875 7.3334375 -23.0546875 7.9921875 C-25.33506598 9.87349975 -26.90485112 11.62334967 -28.5546875 14.0546875 C-28.8846875 13.0646875 -29.2146875 12.0746875 -29.5546875 11.0546875 C-23.43073395 -0.01553623 -12.15095397 -4.49622456 0 0 Z " fill="#C3E5DE" transform="translate(67.5546875,14.9453125)"/>
<path d="M0 0 C1.98 0 3.96 0 6 0 C6.33 0.99 6.66 1.98 7 3 C7.763125 3.28875 8.52625 3.5775 9.3125 3.875 C12.81796707 5.34240482 13.95460947 6.79555484 16 10 C17.16100207 12.95708221 18.12224571 15.94780894 19 19 C18.01 19.33 17.02 19.66 16 20 C16.57584432 22.38564077 17.22227595 24.66682784 18 27 C17.34 27.99 16.68 28.98 16 30 C16 28.35 16 26.7 16 25 C15.34 25 14.68 25 14 25 C14 26.98 14 28.96 14 31 C14.66 31.33 15.32 31.66 16 32 C15.21654285 33.17219543 14.42297164 34.33763668 13.625 35.5 C13.18414062 36.1496875 12.74328125 36.799375 12.2890625 37.46875 C11.86367188 37.9740625 11.43828125 38.479375 11 39 C10.34 39 9.68 39 9 39 C9 40.65 9 42.3 9 44 C12.3 44.33 15.6 44.66 19 45 C16 47 16 47 14 47 C14 48.32 14 49.64 14 51 C14.66 51 15.32 51 16 51 C15.67 51.66 15.34 52.32 15 53 C13.35 53 11.7 53 10 53 C9.34 54.32 8.68 55.64 8 57 C8 56.34 8 55.68 8 55 C0.08 55 -7.84 55 -16 55 C-15 49 -15 49 -13.25 47.25 C-9.75414445 45.30785803 -7.03867853 44 -3 44 C-3 42.35 -3 40.7 -3 39 C-3.598125 38.79375 -4.19625 38.5875 -4.8125 38.375 C-7.81018767 36.49073918 -8.61361776 34.18867916 -10 31 C-9.34 31 -8.68 31 -8 31 C-8 29.02 -8 27.04 -8 25 C-8.66 25 -9.32 25 -10 25 C-10 26.65 -10 28.3 -10 30 C-10.66 29.01 -11.32 28.02 -12 27 C-11.505 26.1028125 -11.505 26.1028125 -11 25.1875 C-9.79212012 22.94613529 -9.79212012 22.94613529 -10 20 C-10.99 19.67 -11.98 19.34 -13 19 C-11.33284976 12.90066986 -9.56970411 8.45824791 -5 4 C-2.75 3.3125 -2.75 3.3125 -1 3 C-0.67 2.01 -0.34 1.02 0 0 Z " fill="#EDCCB0" transform="translate(50,17)"/>
<path d="M0 0 C1.98 0 3.96 0 6 0 C6.33 0.99 6.66 1.98 7 3 C7.763125 3.28875 8.52625 3.5775 9.3125 3.875 C12.81796707 5.34240482 13.95460947 6.79555484 16 10 C17.16100207 12.95708221 18.12224571 15.94780894 19 19 C18.01 19.33 17.02 19.66 16 20 C16.57584432 22.38564077 17.22227595 24.66682784 18 27 C17.34 27.99 16.68 28.98 16 30 C16 28.35 16 26.7 16 25 C15.34 25 14.68 25 14 25 C14 26.98 14 28.96 14 31 C14.66 31.33 15.32 31.66 16 32 C15.01 32.99 14.02 33.98 13 35 C13 30.05 13 25.1 13 20 C9.04 20.33 5.08 20.66 1 21 C1 21.33 1 21.66 1 22 C-4.75 22.125 -4.75 22.125 -7 21 C-7 25.62 -7 30.24 -7 35 C-7.99 33.68 -8.98 32.36 -10 31 C-9.34 31 -8.68 31 -8 31 C-8 29.02 -8 27.04 -8 25 C-8.66 25 -9.32 25 -10 25 C-10 26.65 -10 28.3 -10 30 C-10.66 29.01 -11.32 28.02 -12 27 C-11.505 26.1028125 -11.505 26.1028125 -11 25.1875 C-9.79212012 22.94613529 -9.79212012 22.94613529 -10 20 C-10.99 19.67 -11.98 19.34 -13 19 C-11.33284976 12.90066986 -9.56970411 8.45824791 -5 4 C-2.75 3.3125 -2.75 3.3125 -1 3 C-0.67 2.01 -0.34 1.02 0 0 Z " fill="#EAD757" transform="translate(50,17)"/>
<path d="M0 0 C1.85625 0.2784375 1.85625 0.2784375 3.75 0.5625 C6.76279577 0.94711223 9.10010827 1.0874594 12 0 C12 1.65 12 3.3 12 5 C15.3 5.33 18.6 5.66 22 6 C19 8 19 8 17 8 C17 9.32 17 10.64 17 12 C17.66 12 18.32 12 19 12 C18.67 12.66 18.34 13.32 18 14 C16.35 14 14.7 14 13 14 C12.34 15.32 11.68 16.64 11 18 C11 17.34 11 16.68 11 16 C3.08 16 -4.84 16 -13 16 C-12 10 -12 10 -10.25 8.25 C-6.75414445 6.30785803 -4.03867853 5 0 5 C0 3.35 0 1.7 0 0 Z " fill="#6CB5BA" transform="translate(47,56)"/>
<path d="M0 0 C2.6875 0.3125 2.6875 0.3125 5 1 C5 3.64 5 6.28 5 9 C5.598125 9.144375 6.19625 9.28875 6.8125 9.4375 C8.56150404 9.8872439 10.28677023 10.42892341 12 11 C12.33 12.65 12.66 14.3 13 16 C-5.74951076 17.39921722 -5.74951076 17.39921722 -13 16 C-13.66 15.34 -14.32 14.68 -15 14 C-14.625 11.375 -14.625 11.375 -14 9 C-12.35 9 -10.7 9 -9 9 C-9.33 8.67 -9.66 8.34 -10 8 C-10 6.68 -10 5.36 -10 4 C-5.25 3 -5.25 3 -3 3 C-2.3503125 2.2265625 -2.3503125 2.2265625 -1.6875 1.4375 C-1.130625 0.963125 -0.57375 0.48875 0 0 Z " fill="#FAF9EC" transform="translate(74,60)"/>
<path d="M0 0 C1.98 0 3.96 0 6 0 C6.33 0.99 6.66 1.98 7 3 C7.763125 3.28875 8.52625 3.5775 9.3125 3.875 C12.81796707 5.34240482 13.95460947 6.79555484 16 10 C17.16100207 12.95708221 18.12224571 15.94780894 19 19 C18.01 19.33 17.02 19.66 16 20 C16.57584432 22.38564077 17.22227595 24.66682784 18 27 C17.34 27.99 16.68 28.98 16 30 C16 28.35 16 26.7 16 25 C15.34 25 14.68 25 14 25 C14 26.98 14 28.96 14 31 C14.66 31.33 15.32 31.66 16 32 C15.01 32.99 14.02 33.98 13 35 C13 30.05 13 25.1 13 20 C9.04 20.33 5.08 20.66 1 21 C1 21.33 1 21.66 1 22 C-4.75 22.125 -4.75 22.125 -7 21 C-7 25.62 -7 30.24 -7 35 C-7.99 33.68 -8.98 32.36 -10 31 C-9.34 31 -8.68 31 -8 31 C-8 29.02 -8 27.04 -8 25 C-8.66 25 -9.32 25 -10 25 C-10 26.65 -10 28.3 -10 30 C-10.66 29.01 -11.32 28.02 -12 27 C-11.505 26.1028125 -11.505 26.1028125 -11 25.1875 C-9.79212012 22.94613529 -9.79212012 22.94613529 -10 20 C-10.99 19.67 -11.98 19.34 -13 19 C-11.33284976 12.90066986 -9.56970411 8.45824791 -5 4 C-2.75 3.3125 -2.75 3.3125 -1 3 C-0.67 2.01 -0.34 1.02 0 0 Z M1 1 C1 2.65 1 4.3 1 6 C-0.65 5.67 -2.3 5.34 -4 5 C-7.84661907 8.87033288 -7.84661907 8.87033288 -9.3125 13.875 C-9.209375 14.57625 -9.10625 15.2775 -9 16 C-9.99 16.495 -9.99 16.495 -11 17 C-11 17.66 -11 18.32 -11 19 C-1.76 19 7.48 19 17 19 C17 18.34 17 17.68 17 17 C16.34 16.67 15.68 16.34 15 16 C14.87625 14.906875 14.7525 13.81375 14.625 12.6875 C14.27247457 9.00921226 14.27247457 9.00921226 12.25 6.5 C10.06591401 4.70391009 10.06591401 4.70391009 7.25 5.25 C6.5075 5.4975 5.765 5.745 5 6 C5 4.35 5 2.7 5 1 C3.68 1 2.36 1 1 1 Z " fill="#4F342F" transform="translate(50,17)"/>
<path d="M0 0 C2.0625 0.4375 2.0625 0.4375 4 1 C4 1.99 4 2.98 4 4 C5.32 4 6.64 4 8 4 C8 4.66 8 5.32 8 6 C9.32 6.33 10.64 6.66 12 7 C11.67 8.65 11.34 10.3 11 12 C7.70835171 12.02895225 4.41673601 12.0467823 1.125 12.0625 C0.18785156 12.07087891 -0.74929687 12.07925781 -1.71484375 12.08789062 C-3.05869141 12.09272461 -3.05869141 12.09272461 -4.4296875 12.09765625 C-5.25710449 12.10289307 -6.08452148 12.10812988 -6.93701172 12.11352539 C-9 12 -9 12 -11 11 C-11 9.68 -11 8.36 -11 7 C-8 6 -8 6 -7 6 C-6.67 4.68 -6.34 3.36 -6 2 C-4.7934375 1.7834375 -4.7934375 1.7834375 -3.5625 1.5625 C-1.07896294 1.25864751 -1.07896294 1.25864751 0 0 Z " fill="#FAF9EC" transform="translate(25,47)"/>
<path d="M0 0 C1.85625 0.2784375 1.85625 0.2784375 3.75 0.5625 C6.76279577 0.94711223 9.10010827 1.0874594 12 0 C12 1.65 12 3.3 12 5 C12.66 5.33 13.32 5.66 14 6 C13.01 6.33 12.02 6.66 11 7 C10.34 5.68 9.68 4.36 9 3 C7.02 3 5.04 3 3 3 C2.731875 3.598125 2.46375 4.19625 2.1875 4.8125 C1 7 1 7 -0.625 8.4375 C-2.55052325 10.27870239 -2.55052325 10.27870239 -2 15 C2.62 14.67 7.24 14.34 12 14 C11.67 15.32 11.34 16.64 11 18 C11 17.34 11 16.68 11 16 C3.08 16 -4.84 16 -13 16 C-12 10 -12 10 -10.25 8.25 C-6.75414445 6.30785803 -4.03867853 5 0 5 C0 3.35 0 1.7 0 0 Z " fill="#5F8284" transform="translate(47,56)"/>
<path d="M0 0 C1.98 0 3.96 0 6 0 C6.33 0.99 6.66 1.98 7 3 C7.763125 3.28875 8.52625 3.5775 9.3125 3.875 C12.69925368 5.29271084 13.98047549 6.97071324 16 10 C17.1735237 13.06921583 17.07723233 13.768303 16 17 C15.01 16.67 14.02 16.34 13 16 C13.66 16 14.32 16 15 16 C13.82417919 10.16439094 13.82417919 10.16439094 10 6 C7.37429296 5.74930087 7.37429296 5.74930087 5 6 C5 4.35 5 2.7 5 1 C3.68 1 2.36 1 1 1 C1 2.65 1 4.3 1 6 C0.2575 5.896875 -0.485 5.79375 -1.25 5.6875 C-4.18893405 5.73750311 -4.18893405 5.73750311 -6.25 8.1875 C-7.95528316 10.92813365 -8.63705905 12.82426667 -9 16 C-5.7 16 -2.4 16 1 16 C1 16.33 1 16.66 1 17 C-2.63 17 -6.26 17 -10 17 C-11 12 -11 12 -9.3125 8.875 C-7.30933565 6.38457946 -5.72116392 4.63269835 -3 3 C-2.34 3 -1.68 3 -1 3 C-0.67 2.01 -0.34 1.02 0 0 Z " fill="#755E3D" transform="translate(50,17)"/>
<path d="M0 0 C1.98 0 3.96 0 6 0 C6.33 0.66 6.66 1.32 7 2 C9.02463255 2.65213292 9.02463255 2.65213292 11 3 C11 3.66 11 4.32 11 5 C9.7625 5.12375 8.525 5.2475 7.25 5.375 C4.6242495 5.6795686 3.1329756 5.92401394 0.8125 7.25 C-0.0846875 7.62125 -0.0846875 7.62125 -1 8 C-3.75 6.75 -3.75 6.75 -6 5 C-6 4.34 -6 3.68 -6 3 C-6.66 2.67 -7.32 2.34 -8 2 C-5.36 1.67 -2.72 1.34 0 1 C0 0.67 0 0.34 0 0 Z " fill="#EFF9F7" transform="translate(33,77)"/>
<path d="M0 0 C0.33 0.99 0.66 1.98 1 3 C2.65 2.67 4.3 2.34 6 2 C6.33 2.66 6.66 3.32 7 4 C8.64142963 5.0409066 10.30712215 6.04504326 12 7 C11.67 8.65 11.34 10.3 11 12 C10.01 12.33 9.02 12.66 8 13 C7.67 11.35 7.34 9.7 7 8 C6.401875 7.855625 5.80375 7.71125 5.1875 7.5625 C3.43849596 7.1127561 1.71322977 6.57107659 0 6 C0 5.34 0 4.68 0 4 C-0.99 3.67 -1.98 3.34 -3 3 C-2.01 3 -1.02 3 0 3 C0 2.01 0 1.02 0 0 Z " fill="#E2DDD1" transform="translate(79,63)"/>
<path d="M0 0 C2.97 0 5.94 0 9 0 C9.33 0.66 9.66 1.32 10 2 C4.25 2.125 4.25 2.125 2 1 C2 5.62 2 10.24 2 15 C1.01 13.68 0.02 12.36 -1 11 C-0.34 11 0.32 11 1 11 C1 9.02 1 7.04 1 5 C0.34 5 -0.32 5 -1 5 C-1 6.65 -1 8.3 -1 10 C-1.66 9.01 -2.32 8.02 -3 7 C-2.21069203 4.51064409 -1.1651105 2.330221 0 0 Z " fill="#957866" transform="translate(41,37)"/>
<path d="M0 0 C1.85625 0.2784375 1.85625 0.2784375 3.75 0.5625 C6.76279577 0.94711223 9.10010827 1.0874594 12 0 C12 1.65 12 3.3 12 5 C12.66 5.33 13.32 5.66 14 6 C13.01 6.33 12.02 6.66 11 7 C10.34 5.68 9.68 4.36 9 3 C7.02 3 5.04 3 3 3 C2.773125 3.639375 2.54625 4.27875 2.3125 4.9375 C1 7 1 7 -1.625 7.75 C-2.800625 7.87375 -2.800625 7.87375 -4 8 C-3.67 7.01 -3.34 6.02 -3 5 C-2.01 5 -1.02 5 0 5 C0 3.35 0 1.7 0 0 Z " fill="#837467" transform="translate(47,56)"/>
<path d="M0 0 C2.64 0 5.28 0 8 0 C8.33 1.65 8.66 3.3 9 5 C5.7 5 2.4 5 -1 5 C-0.67 3.35 -0.34 1.7 0 0 Z " fill="#F2B97F" transform="translate(49,58)"/>
<path d="M0 0 C0.66 0 1.32 0 2 0 C4.17364926 2.81769349 5.08677021 4.2190681 4.6875 7.8125 C4.460625 8.534375 4.23375 9.25625 4 10 C3.67 10 3.34 10 3 10 C3 8.35 3 6.7 3 5 C2.34 5 1.68 5 1 5 C1 6.98 1 8.96 1 11 C1.66 11.33 2.32 11.66 3 12 C2.01 12.99 1.02 13.98 0 15 C0 10.05 0 5.1 0 0 Z " fill="#8A6E5D" transform="translate(63,37)"/>
<path d="M0 0 C-4.43076923 3.07692308 -4.43076923 3.07692308 -7.3125 2.6875 C-7.869375 2.460625 -8.42625 2.23375 -9 2 C-9 3.98 -9 5.96 -9 8 C-10.65 7.67 -12.3 7.34 -14 7 C-11.98774719 3.43986042 -10.74020975 1.35468384 -7 -0.4375 C-4.14985179 -0.97190279 -2.66777159 -1.026066 0 0 Z " fill="#877872" transform="translate(28,47)"/>
<path d="M0 0 C5.94 0 11.88 0 18 0 C18 0.33 18 0.66 18 1 C15.03 1 12.06 1 9 1 C9 1.66 9 2.32 9 3 C7.68 3 6.36 3 5 3 C5 2.34 5 1.68 5 1 C3.35 1 1.7 1 0 1 C0 0.67 0 0.34 0 0 Z " fill="#EDF9F7" transform="translate(75,43)"/>
<path d="M0 0 C2.31 0 4.62 0 7 0 C7 0.66 7 1.32 7 2 C7.66 2.66 8.32 3.32 9 4 C7.3125 4.6875 7.3125 4.6875 5 5 C2.25 3.6875 2.25 3.6875 0 2 C0 1.34 0 0.68 0 0 Z " fill="#D9F3EE" transform="translate(27,80)"/>
<path d="M0 0 C1.98 0 3.96 0 6 0 C6 0.66 6 1.32 6 2 C2.84493858 2.93619813 0.03413498 3.1057123 -3.25 3.0625 C-4.14203125 3.05347656 -5.0340625 3.04445312 -5.953125 3.03515625 C-6.62859375 3.02355469 -7.3040625 3.01195312 -8 3 C-8 2.67 -8 2.34 -8 2 C-5.36 2 -2.72 2 0 2 C0 1.34 0 0.68 0 0 Z " fill="#EFF9F7" transform="translate(81,39)"/>
</svg>
