<?xml version="1.0" encoding="UTF-8"?>
<!DOCTYPE svg PUBLIC "-//W3C//DTD SVG 1.1//EN" "http://www.w3.org/Graphics/SVG/1.1/DTD/svg11.dtd">
<svg xmlns="http://www.w3.org/2000/svg" version="1.1" width="100px" height="100px" style="shape-rendering:geometricPrecision; text-rendering:geometricPrecision; image-rendering:optimizeQuality; fill-rule:evenodd; clip-rule:evenodd" xmlns:xlink="http://www.w3.org/1999/xlink">
<g><path style="opacity:0.979" fill="#c5e8e1" d="M 67.5,15.5 C 67.573,17.0269 66.9063,18.0269 65.5,18.5C 63.8561,18.2865 62.3561,18.6198 61,19.5C 60.884,21.6546 61.2173,23.6546 62,25.5C 61.2917,24.6195 60.4584,23.9528 59.5,23.5C 59.362,19.7139 58.6953,19.7139 57.5,23.5C 56.2502,23.5774 55.4169,24.244 55,25.5C 54.235,27.0657 54.4017,28.3991 55.5,29.5C 59.7034,30.9596 64.0367,31.9596 68.5,32.5C 71.8333,32.5 75.1667,32.5 78.5,32.5C 82.4596,35.306 85.6263,38.9727 88,43.5C 88.7666,47.5575 88.5999,51.5575 87.5,55.5C 89.98,58.3609 90.98,61.6942 90.5,65.5C 95.8333,65.8333 95.8333,66.1667 90.5,66.5C 88.8705,73.8335 84.2038,77.0002 76.5,76C 70.6861,82.2645 64.1861,83.0978 57,78.5C 50.8942,85.0917 43.3942,87.2583 34.5,85C 30.1555,83.8189 26.8221,81.3189 24.5,77.5C 25.8333,77.5 27.1667,77.5 28.5,77.5C 30.3591,77.1121 32.3591,77.1121 34.5,77.5C 39.9933,78.822 42.4933,76.822 42,71.5C 41.5,71 41,70.5 40.5,70C 47.1667,69.3333 53.8333,69.3333 60.5,70C 59.3128,71.0195 58.3128,72.1861 57.5,73.5C 57.8555,74.5223 58.5222,75.189 59.5,75.5C 59.5173,77.0281 60.184,77.5281 61.5,77C 64.8832,73.9533 67.8832,70.62 70.5,67C 67.8832,63.38 64.8832,60.0467 61.5,57C 60.184,56.4719 59.5173,56.9719 59.5,58.5C 58.5222,58.811 57.8555,59.4777 57.5,60.5C 58.3128,61.8139 59.3128,62.9805 60.5,64C 53.5,64.6667 46.5,64.6667 39.5,64C 38.6667,63.1667 37.8333,62.3333 37,61.5C 36.5012,57.5138 36.3345,53.5138 36.5,49.5C 34.5,49.5 32.5,49.5 30.5,49.5C 30.3345,53.5138 30.5012,57.5138 31,61.5C 32.8122,63.3036 32.6456,64.3036 30.5,64.5C 29.3991,63.4017 28.0657,63.235 26.5,64C 25.0963,66.3237 23.0963,67.8237 20.5,68.5C 20.5,67.1667 20.5,65.8333 20.5,64.5C 15.4081,64.9073 11.5748,62.9073 9,58.5C 7.83609,53.2741 8.66943,48.4408 11.5,44C 10.8333,43.6667 10.1667,43.3333 9.5,43C 12.1677,42.433 14.8344,41.933 17.5,41.5C 18.1696,35.6627 21.1696,31.496 26.5,29C 29.8333,28.6667 33.1667,28.3333 36.5,28C 43.0354,14.3986 53.3688,10.2319 67.5,15.5 Z"/></g>
<g><path style="opacity:1" fill="#f7f5e9" d="M 68.5,32.5 C 64.0367,31.9596 59.7034,30.9596 55.5,29.5C 55.9707,27.4214 56.6373,25.4214 57.5,23.5C 58.1667,23.5 58.8333,23.5 59.5,23.5C 60.4584,23.9528 61.2917,24.6195 62,25.5C 61.2173,23.6546 60.884,21.6546 61,19.5C 62.3561,18.6198 63.8561,18.2865 65.5,18.5C 65.7828,19.2891 66.2828,19.9558 67,20.5C 67.7756,16.0497 70.2756,14.5497 74.5,16C 76.0037,17.4907 76.8371,19.324 77,21.5C 78.3876,20.4464 79.8876,20.2797 81.5,21C 84.1643,22.5953 86.1643,24.762 87.5,27.5C 87.4712,29.0293 86.8045,30.196 85.5,31C 79.6518,31.1728 73.9851,31.6728 68.5,32.5 Z"/></g>
<g><path style="opacity:1" fill="#56403d" d="M 59.5,23.5 C 58.8333,23.5 58.1667,23.5 57.5,23.5C 58.6953,19.7139 59.362,19.7139 59.5,23.5 Z"/></g>
<g><path style="opacity:0.984" fill="#4d3330" d="M 78.5,32.5 C 75.1667,32.5 71.8333,32.5 68.5,32.5C 73.9851,31.6728 79.6518,31.1728 85.5,31C 86.8045,30.196 87.4712,29.0293 87.5,27.5C 86.1643,24.762 84.1643,22.5953 81.5,21C 79.8876,20.2797 78.3876,20.4464 77,21.5C 76.8371,19.324 76.0037,17.4907 74.5,16C 70.2756,14.5497 67.7756,16.0497 67,20.5C 66.2828,19.9558 65.7828,19.2891 65.5,18.5C 66.9063,18.0269 67.573,17.0269 67.5,15.5C 70.0728,14.4448 72.7395,14.2782 75.5,15C 77.0368,16.1096 77.7035,17.6096 77.5,19.5C 81.6366,19.7047 85.1366,21.3714 88,24.5C 89.1474,31.8389 85.9807,34.5055 78.5,32.5 Z"/></g>
<g><path style="opacity:1" fill="#a79991" d="M 75.5,22.5 C 78.0573,23.1878 80.3907,24.3545 82.5,26C 81.5,26.6667 80.5,26.6667 79.5,26C 77.6813,25.2597 76.3479,24.0931 75.5,22.5 Z"/></g>
<g><path style="opacity:1" fill="#93857e" d="M 57.5,23.5 C 56.6373,25.4214 55.9707,27.4214 55.5,29.5C 54.4017,28.3991 54.235,27.0657 55,25.5C 55.4169,24.244 56.2502,23.5774 57.5,23.5 Z"/></g>
<g><path style="opacity:1" fill="#5e4d49" d="M 58.5,44.5 C 65.3467,42.5163 67.8467,45.1829 66,52.5C 66.6944,46.6967 64.1944,44.03 58.5,44.5 Z"/></g>
<g><path style="opacity:1" fill="#53302f" d="M 65.5,37.5 C 68.9875,38.1434 71.4875,40.1434 73,43.5C 73.499,47.8206 73.6657,52.1539 73.5,56.5C 71.8333,56.5 70.1667,56.5 68.5,56.5C 68.6653,52.8183 68.4986,49.1516 68,45.5C 67.6258,44.5838 67.1258,43.7504 66.5,43C 58.9391,41.4021 51.2724,41.0687 43.5,42C 44.8333,43.3333 46.1667,44.6667 47.5,46C 46.3333,47.1667 45.1667,48.3333 44,49.5C 40.5,46 37,42.5 33.5,39C 37,35.5 40.5,32 44,28.5C 45.1667,29.6667 46.3333,30.8333 47.5,32C 46.1667,33.3333 44.8333,34.6667 43.5,36C 51.0115,36.1712 58.3448,36.6712 65.5,37.5 Z"/></g>
<g><path style="opacity:1" fill="#db4d61" d="M 65.5,37.5 C 71.9537,41.7012 74.287,47.7012 72.5,55.5C 71.5,55.5 70.5,55.5 69.5,55.5C 69.6653,51.8183 69.4986,48.1516 69,44.5C 68.5,42.6667 67.3333,41.5 65.5,41C 57.4792,40.1684 49.4792,40.3351 41.5,41.5C 42.6477,43.1487 43.981,44.6487 45.5,46C 45,46.5 44.5,47 44,47.5C 41.1667,44.6667 38.3333,41.8333 35.5,39C 38.3333,36.1667 41.1667,33.3333 44,30.5C 44.5,31 45,31.5 45.5,32C 43.981,33.3513 42.6477,34.8513 41.5,36.5C 49.4723,37.4977 57.4723,37.831 65.5,37.5 Z"/></g>
<g><path style="opacity:1" fill="#d94d60" d="M 59.5,58.5 C 63.2347,60.7246 66.568,63.558 69.5,67C 66.568,70.442 63.2347,73.2754 59.5,75.5C 59.7438,72.7374 61.0771,70.5707 63.5,69C 55.5,68.6667 47.5,68.3333 39.5,68C 38.9558,67.2828 38.2891,66.7828 37.5,66.5C 35.4066,65.9424 33.9066,64.6091 33,62.5C 32.1735,58.4589 32.3401,54.4589 33.5,50.5C 34.3236,53.7848 34.8236,57.1182 35,60.5C 35.7845,62.286 36.9512,63.786 38.5,65C 46.8333,65.6667 55.1667,65.6667 63.5,65C 61.0771,63.4293 59.7438,61.2626 59.5,58.5 Z"/></g>
<g><path style="opacity:1" fill="#5f4e4b" d="M 38.5,53.5 C 38.1772,59.0136 40.8438,61.8469 46.5,62C 39.6625,63.3267 36.9959,60.4933 38.5,53.5 Z"/></g>
<g><path style="opacity:1" fill="#5c3c3b" d="M 59.5,58.5 C 59.7438,61.2626 61.0771,63.4293 63.5,65C 55.1667,65.6667 46.8333,65.6667 38.5,65C 36.9512,63.786 35.7845,62.286 35,60.5C 34.8236,57.1182 34.3236,53.7848 33.5,50.5C 32.3401,54.4589 32.1735,58.4589 33,62.5C 33.9066,64.6091 35.4066,65.9424 37.5,66.5C 34.3783,68.4337 32.045,67.7671 30.5,64.5C 32.6456,64.3036 32.8122,63.3036 31,61.5C 30.5012,57.5138 30.3345,53.5138 30.5,49.5C 32.5,49.5 34.5,49.5 36.5,49.5C 36.3345,53.5138 36.5012,57.5138 37,61.5C 37.8333,62.3333 38.6667,63.1667 39.5,64C 46.5,64.6667 53.5,64.6667 60.5,64C 59.3128,62.9805 58.3128,61.8139 57.5,60.5C 57.8555,59.4777 58.5222,58.811 59.5,58.5 Z"/></g>
<g><path style="opacity:1" fill="#f7f5e9" d="M 30.5,64.5 C 32.045,67.7671 34.3783,68.4337 37.5,66.5C 38.0507,69.2668 39.3841,71.6001 41.5,73.5C 41.0233,74.4776 40.3567,75.3109 39.5,76C 37.6183,76.1981 35.9516,76.6981 34.5,77.5C 32.3591,77.1121 30.3591,77.1121 28.5,77.5C 25.3586,76.6787 22.0252,76.1787 18.5,76C 17.1667,74.3333 17.1667,72.6667 18.5,71C 22.8174,69.1641 26.8174,66.9974 30.5,64.5 Z"/></g>
<g><path style="opacity:1" fill="#553a37" d="M 37.5,66.5 C 38.2891,66.7828 38.9558,67.2828 39.5,68C 47.5,68.3333 55.5,68.6667 63.5,69C 61.0771,70.5707 59.7438,72.7374 59.5,75.5C 58.5222,75.189 57.8555,74.5223 57.5,73.5C 58.3128,72.1861 59.3128,71.0195 60.5,70C 53.8333,69.3333 47.1667,69.3333 40.5,70C 41,70.5 41.5,71 42,71.5C 42.4933,76.822 39.9933,78.822 34.5,77.5C 35.9516,76.6981 37.6183,76.1981 39.5,76C 40.3567,75.3109 41.0233,74.4776 41.5,73.5C 39.3841,71.6001 38.0507,69.2668 37.5,66.5 Z"/></g>
<g><path style="opacity:0.941" fill="#553c39" d="M 30.5,64.5 C 26.8174,66.9974 22.8174,69.1641 18.5,71C 17.1667,72.6667 17.1667,74.3333 18.5,76C 22.0252,76.1787 25.3586,76.6787 28.5,77.5C 27.1667,77.5 25.8333,77.5 24.5,77.5C 17.8929,79.251 15.3929,76.9177 17,70.5C 18.3024,69.9152 19.469,69.2485 20.5,68.5C 23.0963,67.8237 25.0963,66.3237 26.5,64C 28.0657,63.235 29.3991,63.4017 30.5,64.5 Z"/></g>
<g><path style="opacity:1" fill="#5d4644" d="M 59.5,75.5 C 63.2347,73.2754 66.568,70.442 69.5,67C 66.568,63.558 63.2347,60.7246 59.5,58.5C 59.5173,56.9719 60.184,56.4719 61.5,57C 64.8832,60.0467 67.8832,63.38 70.5,67C 67.8832,70.62 64.8832,73.9533 61.5,77C 60.184,77.5281 59.5173,77.0281 59.5,75.5 Z"/></g>
</svg>
