<?xml version="1.0" encoding="UTF-8"?>
<svg version="1.1" xmlns="http://www.w3.org/2000/svg" width="100" height="100">
<path d="M0 0 C3.70624436 2.00076932 5.7872112 3.43667618 8.15234375 6.984375 C10.2023833 8.17670113 10.2023833 8.17670113 12.15234375 8.984375 C11.16234375 8.984375 10.17234375 8.984375 9.15234375 8.984375 C9.61640625 9.78875 9.61640625 9.78875 10.08984375 10.609375 C11.15234375 12.984375 11.15234375 12.984375 11.33984375 15.859375 C12.38281378 19.87079818 14.21024237 21.08979486 17.4609375 23.4921875 C19.40771221 25.20966542 20.24210018 26.56010822 21.15234375 28.984375 C21.15234375 30.304375 21.15234375 31.624375 21.15234375 32.984375 C22.80234375 33.314375 24.45234375 33.644375 26.15234375 33.984375 C26.15234375 34.974375 26.15234375 35.964375 26.15234375 36.984375 C27.63734375 37.479375 27.63734375 37.479375 29.15234375 37.984375 C29.19488731 39.98392246 29.19315158 41.98479136 29.15234375 43.984375 C28.15234375 44.984375 28.15234375 44.984375 25.58984375 45.046875 C24.78546875 45.02625 23.98109375 45.005625 23.15234375 44.984375 C23.19875 45.64824219 23.24515625 46.31210937 23.29296875 46.99609375 C23.46197842 51.13079471 23.52042515 54.18128832 21.77734375 57.984375 C18.44856288 60.52058899 15.67425785 60.77667057 11.59765625 61.3828125 C8.82305373 61.86670921 8.82305373 61.86670921 6.15234375 64.609375 C2.38639317 67.59075254 0.17678063 67.47879155 -4.48046875 67.35546875 C-6.95461027 66.96760828 -8.6864507 66.22432934 -10.84765625 64.984375 C-11.77578125 65.78875 -12.70390625 66.593125 -13.66015625 67.421875 C-19.20876985 72.23067345 -25.85734443 71.43369047 -32.84765625 70.984375 C-38.68454561 69.2549263 -42.32746666 64.79433103 -45.84765625 59.984375 C-47.00540685 56.51112319 -46.91632277 53.62370052 -46.84765625 49.984375 C-48.17796875 50.1390625 -48.17796875 50.1390625 -49.53515625 50.296875 C-53.95087636 49.88029763 -54.98741831 48.28464955 -57.84765625 44.984375 C-59.23984375 43.5921875 -59.23984375 43.5921875 -60.66015625 42.171875 C-61.38203125 41.45 -62.10390625 40.728125 -62.84765625 39.984375 C-61.52765625 39.984375 -60.20765625 39.984375 -58.84765625 39.984375 C-58.90953125 39.0975 -58.97140625 38.210625 -59.03515625 37.296875 C-58.82624319 33.60607754 -58.02895029 31.92073236 -55.84765625 28.984375 C-55.18765625 28.654375 -54.52765625 28.324375 -53.84765625 27.984375 C-54.81703125 27.675 -55.78640625 27.365625 -56.78515625 27.046875 C-59.84765625 25.984375 -59.84765625 25.984375 -60.84765625 24.984375 C-61.03515625 22.046875 -61.03515625 22.046875 -60.84765625 18.984375 C-60.18765625 18.324375 -59.52765625 17.664375 -58.84765625 16.984375 C-57.85765625 16.984375 -56.86765625 16.984375 -55.84765625 16.984375 C-55.51765625 15.994375 -55.18765625 15.004375 -54.84765625 13.984375 C-53.19765625 13.984375 -51.54765625 13.984375 -49.84765625 13.984375 C-49.63109375 13.0253125 -49.63109375 13.0253125 -49.41015625 12.046875 C-48.84765625 9.984375 -48.84765625 9.984375 -47.84765625 8.984375 C-44.41015625 8.796875 -44.41015625 8.796875 -40.84765625 8.984375 C-40.18765625 9.644375 -39.52765625 10.304375 -38.84765625 10.984375 C-36.88075251 11.65730001 -36.88075251 11.65730001 -34.72265625 12.109375 C-32.80453125 12.5425 -32.80453125 12.5425 -30.84765625 12.984375 C-30.54472656 12.45328125 -30.24179687 11.9221875 -29.9296875 11.375 C-23.23935212 0.09406526 -13.01716458 -4.64261014 0 0 Z " fill="#59413D" transform="translate(67.84765625,15.015625)"/>
<path d="M0 0 C2.9375 0.25 2.9375 0.25 6 1 C6.66 1.99 7.32 2.98 8 4 C9.65 3.67 11.3 3.34 13 3 C13 4.32 13 5.64 13 7 C12.43410156 7.15855469 11.86820313 7.31710938 11.28515625 7.48046875 C9.06779058 8.18581705 7.04806871 8.89153152 5 10 C3.86559222 12.57080135 3.86559222 12.57080135 4 15 C4.99 14.67 5.98 14.34 7 14 C7 25.22 7 36.44 7 48 C23.17 48 39.34 48 56 48 C56 43.71 56 39.42 56 35 C54.35 34.01 52.7 33.02 51 32 C52.36983503 28.83884224 52.9890638 28.0072908 56 26 C56.99 26 57.98 26 59 26 C59.66 24.68 60.32 23.36 61 22 C63.38564077 22.57584432 65.66682784 23.22227595 68 24 C69.33106622 24.34227417 70.66400079 24.67751743 72 25 C72 25.99 72 26.98 72 28 C73.485 28.495 73.485 28.495 75 29 C74.75 30.875 74.75 30.875 74 33 C71.953125 34.1328125 71.953125 34.1328125 70 35 C70.04640625 35.66386719 70.0928125 36.32773437 70.140625 37.01171875 C70.30963467 41.14641971 70.3680814 44.19691332 68.625 48 C65.29621913 50.53621399 62.5219141 50.79229557 58.4453125 51.3984375 C55.67070998 51.88233421 55.67070998 51.88233421 53 54.625 C49.23404942 57.60637754 47.02443688 57.49441655 42.3671875 57.37109375 C39.89304598 56.98323328 38.16120555 56.23995434 36 55 C34.6078125 56.2065625 34.6078125 56.2065625 33.1875 57.4375 C27.6388864 62.24629845 20.99031182 61.44931547 14 61 C8.16311064 59.2705513 4.52018959 54.80995603 1 50 C-0.1577506 46.52674819 -0.06866652 43.63932552 0 40 C-1.3303125 40.1546875 -1.3303125 40.1546875 -2.6875 40.3125 C-7.10322011 39.89592263 -8.13976206 38.30027455 -11 35 C-12.3921875 33.6078125 -12.3921875 33.6078125 -13.8125 32.1875 C-14.8953125 31.1046875 -14.8953125 31.1046875 -16 30 C-14.68 30 -13.36 30 -12 30 C-12.061875 29.113125 -12.12375 28.22625 -12.1875 27.3125 C-11.97697059 23.59314716 -11.2132352 21.95098026 -9 19 C-8.01 18.34 -7.02 17.68 -6 17 C-7.98 16.34 -9.96 15.68 -12 15 C-12.625 12.625 -12.625 12.625 -13 10 C-12.34 9.34 -11.68 8.68 -11 8 C-10.01 8 -9.02 8 -8 8 C-7.67 7.01 -7.34 6.02 -7 5 C-5.35 5.33 -3.7 5.66 -2 6 C-1.855625 5.195625 -1.71125 4.39125 -1.5625 3.5625 C-1 1 -1 1 0 0 Z " fill="#C7ECE6" transform="translate(21,25)"/>
<path d="M0 0 C1.16208984 0.4940332 1.16208984 0.4940332 2.34765625 0.99804688 C4.23563476 1.80218587 6.1183893 2.61857171 8 3.4375 C8.08086147 5.22843191 8.13912702 7.02039628 8.1875 8.8125 C8.23970703 10.30910156 8.23970703 10.30910156 8.29296875 11.8359375 C8.14794922 13.12371094 8.14794922 13.12371094 8 14.4375 C7.01 15.0975 6.02 15.7575 5 16.4375 C5.495 18.9125 5.495 18.9125 6 21.4375 C6.99 21.7675 7.98 22.0975 9 22.4375 C9 26.3975 9 30.3575 9 34.4375 C6.69 34.4375 4.38 34.4375 2 34.4375 C2 26.5175 2 18.5975 2 10.4375 C-8.89 10.4375 -19.78 10.4375 -31 10.4375 C-31 18.0275 -31 25.6175 -31 33.4375 C-32.98 33.4375 -34.96 33.4375 -37 33.4375 C-37 23.5375 -37 13.6375 -37 3.4375 C-33.865 2.096875 -30.73 0.75625 -27.5 -0.625 C-26.52869141 -1.05176025 -25.55738281 -1.47852051 -24.55664062 -1.91821289 C-15.08080862 -5.83402915 -9.11251739 -3.98771342 0 0 Z " fill="#FAF9EC" transform="translate(67,37.5625)"/>
<path d="M0 0 C3.70624436 2.00076932 5.7872112 3.43667618 8.15234375 6.984375 C10.2023833 8.17670113 10.2023833 8.17670113 12.15234375 8.984375 C11.16234375 8.984375 10.17234375 8.984375 9.15234375 8.984375 C9.48234375 9.520625 9.81234375 10.056875 10.15234375 10.609375 C11.37933579 13.5234811 11.29467661 15.85305208 11.15234375 18.984375 C7.69413469 18.38530914 4.68476463 17.48998706 1.46484375 16.1015625 C0.60117188 15.73933594 -0.2625 15.37710937 -1.15234375 15.00390625 C-2.95204159 14.23968673 -4.7489319 13.46882222 -6.54296875 12.69140625 C-7.40664063 12.33175781 -8.2703125 11.97210938 -9.16015625 11.6015625 C-9.94003906 11.26753418 -10.71992187 10.93350586 -11.5234375 10.58935547 C-16.86214157 9.1997222 -21.73803159 12.12451003 -26.54296875 14.2421875 C-28.84765625 14.984375 -28.84765625 14.984375 -31.84765625 13.984375 C-24.3016189 1.84847987 -14.98771123 -5.34541141 0 0 Z " fill="#C6EAE3" transform="translate(67.84765625,15.015625)"/>
<path d="M0 0 C0.8971875 0.35191406 1.794375 0.70382813 2.71875 1.06640625 C3.57984375 1.41316406 4.4409375 1.75992188 5.328125 2.1171875 C6.49456543 2.58680908 6.49456543 2.58680908 7.68457031 3.06591797 C9.8211188 4.1614673 11.16211881 5.3413266 12.75 7.125 C12.75 5.475 12.75 3.825 12.75 2.125 C16.57017001 3.62578107 18.50370799 5.71683281 20.75 9.125 C21.5 12.4375 21.5 12.4375 21.75 15.125 C23.4 15.455 25.05 15.785 26.75 16.125 C26.75 17.115 26.75 18.105 26.75 19.125 C28.235 19.62 28.235 19.62 29.75 20.125 C29.79254356 22.12454746 29.79080783 24.12541636 29.75 26.125 C28.75 27.125 28.75 27.125 25.1875 27.1875 C24.053125 27.166875 22.91875 27.14625 21.75 27.125 C21.75 26.795 21.75 26.465 21.75 26.125 C23.73 25.465 25.71 24.805 27.75 24.125 C27.75 23.135 27.75 22.145 27.75 21.125 C27.09 20.795 26.43 20.465 25.75 20.125 C25.255 18.64 25.255 18.64 24.75 17.125 C23.96625 17.16625 23.1825 17.2075 22.375 17.25 C19.75 17.125 19.75 17.125 17.75 15.125 C15.66666667 15.29166667 15.66666667 15.29166667 13.75 16.125 C13.42 16.785 13.09 17.445 12.75 18.125 C10.4927974 19.60814991 8.1238217 20.83018817 5.75 22.125 C6.245 24.6 6.245 24.6 6.75 27.125 C5.76 26.465 4.77 25.805 3.75 25.125 C4.08 23.475 4.41 21.825 4.75 20.125 C5.74 19.795 6.73 19.465 7.75 19.125 C7.75 15.495 7.75 11.865 7.75 8.125 C6.30625 7.7125 4.8625 7.3 3.375 6.875 C-1.18535579 5.53333946 -5.43155179 3.81817156 -9.73046875 1.796875 C-15.92415477 0.14522539 -21.86239434 2.9106274 -27.5625 5.1875 C-35.01716247 8.125 -35.01716247 8.125 -37.25 8.125 C-37.25 18.025 -37.25 27.925 -37.25 38.125 C-35.27 38.125 -33.29 38.125 -31.25 38.125 C-31.25 38.455 -31.25 38.785 -31.25 39.125 C-33.56 39.125 -35.87 39.125 -38.25 39.125 C-38.27468447 34.31950253 -38.29285255 29.51404182 -38.30493164 24.70849609 C-38.30996621 23.07307289 -38.31679427 21.4376542 -38.32543945 19.80224609 C-38.33754335 17.45409025 -38.343237 15.10599381 -38.34765625 12.7578125 C-38.35281754 12.02442657 -38.35797882 11.29104065 -38.36329651 10.53543091 C-38.36387171 5.35274341 -38.36387171 5.35274341 -37.25 3.125 C-34.15609306 1.4802577 -30.87159668 0.24941812 -27.625 -1.0625 C-26.73425781 -1.44341797 -25.84351563 -1.82433594 -24.92578125 -2.21679688 C-15.42950011 -6.06985351 -9.14464412 -3.73005221 0 0 Z " fill="#624442" transform="translate(67.25,32.875)"/>
<path d="M0 0 C3.5625 0.1875 3.5625 0.1875 5.5625 2.1875 C7.88015729 2.90677295 10.21345874 3.5784893 12.5625 4.1875 C12.5625 4.8475 12.5625 5.5075 12.5625 6.1875 C13.58730469 5.74277344 14.61210938 5.29804688 15.66796875 4.83984375 C17.02835713 4.26754243 18.38905054 3.69596577 19.75 3.125 C20.42353516 2.83044922 21.09707031 2.53589844 21.79101562 2.23242188 C27.89496001 -0.29848189 31.37187739 0.56658183 37.28515625 3 C38.15333984 3.35320313 39.02152344 3.70640625 39.91601562 4.0703125 C40.80998047 4.43898438 41.70394531 4.80765625 42.625 5.1875 C44.40657229 5.91905732 46.18909166 6.64831346 47.97265625 7.375 C48.75777588 7.69855469 49.54289551 8.02210937 50.35180664 8.35546875 C52.40870767 9.12961769 54.42082662 9.70404402 56.5625 10.1875 C56.5625 12.1675 56.5625 14.1475 56.5625 16.1875 C55.5725 15.8575 54.5825 15.5275 53.5625 15.1875 C53.5625 14.5275 53.5625 13.8675 53.5625 13.1875 C51.7371875 12.5996875 51.7371875 12.5996875 49.875 12 C46.96417782 11.04811976 44.14649267 10.01478938 41.31640625 8.83984375 C40.20136719 8.37707031 39.08632813 7.91429687 37.9375 7.4375 C36.89335938 6.98890625 35.84921875 6.5403125 34.7734375 6.078125 C27.7696694 4.13547399 21.67101634 7.10728341 15.25 9.75 C13.65092585 10.40006117 12.05071689 11.04733997 10.44921875 11.69140625 C9.75014404 11.97830322 9.05106934 12.2652002 8.33081055 12.56079102 C6.5625 13.1875 6.5625 13.1875 4.5625 13.1875 C4.2325 14.1775 3.9025 15.1675 3.5625 16.1875 C2.9025 16.1875 2.2425 16.1875 1.5625 16.1875 C1.5625 14.5375 1.5625 12.8875 1.5625 11.1875 C4.5325 9.8675 7.5025 8.5475 10.5625 7.1875 C10.5625 6.5275 10.5625 5.8675 10.5625 5.1875 C8.5825 5.5175 6.6025 5.8475 4.5625 6.1875 C4.2325 5.1975 3.9025 4.2075 3.5625 3.1875 C0.5925 2.6925 0.5925 2.6925 -2.4375 2.1875 C-3.0975 3.8375 -3.7575 5.4875 -4.4375 7.1875 C-6.0875 7.1875 -7.7375 7.1875 -9.4375 7.1875 C-9.7675 7.8475 -10.0975 8.5075 -10.4375 9.1875 C-12.5 10.3125 -12.5 10.3125 -14.4375 11.1875 C-14.1075 12.8375 -13.7775 14.4875 -13.4375 16.1875 C-7.8275 16.5175 -2.2175 16.8475 3.5625 17.1875 C3.5625 17.5175 3.5625 17.8475 3.5625 18.1875 C0.60392591 18.24129226 -2.35367721 18.28107093 -5.3125 18.3125 C-6.57513672 18.33763672 -6.57513672 18.33763672 -7.86328125 18.36328125 C-9.07177734 18.37294922 -9.07177734 18.37294922 -10.3046875 18.3828125 C-11.04831543 18.39328613 -11.79194336 18.40375977 -12.55810547 18.41455078 C-14.4375 18.1875 -14.4375 18.1875 -16.4375 16.1875 C-16.6875 13.1875 -16.6875 13.1875 -16.4375 10.1875 C-15.7775 9.5275 -15.1175 8.8675 -14.4375 8.1875 C-13.4475 8.1875 -12.4575 8.1875 -11.4375 8.1875 C-11.1075 7.1975 -10.7775 6.2075 -10.4375 5.1875 C-8.7875 5.1875 -7.1375 5.1875 -5.4375 5.1875 C-5.293125 4.548125 -5.14875 3.90875 -5 3.25 C-4.06391478 -0.18231248 -3.80693004 0.20765073 0 0 Z " fill="#573A38" transform="translate(23.4375,23.8125)"/>
<path d="M0 0 C2.9375 0.25 2.9375 0.25 6 1 C6.66 1.99 7.32 2.98 8 4 C9.65 3.67 11.3 3.34 13 3 C13 4.32 13 5.64 13 7 C12.43410156 7.15855469 11.86820313 7.31710938 11.28515625 7.48046875 C9.06779058 8.18581705 7.04806871 8.89153152 5 10 C3.86559222 12.57080135 3.86559222 12.57080135 4 15 C4.99 14.67 5.98 14.34 7 14 C7 14.66 7 15.32 7 16 C4.04142591 16.05379226 1.08382279 16.09357093 -1.875 16.125 C-3.13763672 16.15013672 -3.13763672 16.15013672 -4.42578125 16.17578125 C-5.63427734 16.18544922 -5.63427734 16.18544922 -6.8671875 16.1953125 C-7.61081543 16.20578613 -8.35444336 16.21625977 -9.12060547 16.22705078 C-11 16 -11 16 -13 14 C-12.625 11.375 -12.625 11.375 -12 9 C-11.360625 8.896875 -10.72125 8.79375 -10.0625 8.6875 C-9.0415625 8.3471875 -9.0415625 8.3471875 -8 8 C-7.67 7.01 -7.34 6.02 -7 5 C-5.35 5.33 -3.7 5.66 -2 6 C-1.855625 5.195625 -1.71125 4.39125 -1.5625 3.5625 C-1 1 -1 1 0 0 Z " fill="#F6F4E7" transform="translate(21,25)"/>
<path d="M0 0 C1.3293457 0.53657227 1.3293457 0.53657227 2.68554688 1.08398438 C4.05356445 1.64375977 4.05356445 1.64375977 5.44921875 2.21484375 C6.38056641 2.59189453 7.31191406 2.96894531 8.27148438 3.35742188 C10.56147933 4.28516342 12.84931493 5.21823186 15.13671875 6.15234375 C15.13671875 10.44234375 15.13671875 14.73234375 15.13671875 19.15234375 C14.80671875 19.15234375 14.47671875 19.15234375 14.13671875 19.15234375 C14.13671875 15.85234375 14.13671875 12.55234375 14.13671875 9.15234375 C12.69296875 8.73984375 11.24921875 8.32734375 9.76171875 7.90234375 C5.20136296 6.56068321 0.95516696 4.84551531 -3.34375 2.82421875 C-9.53743602 1.17256914 -15.47567559 3.93797115 -21.17578125 6.21484375 C-28.63044372 9.15234375 -28.63044372 9.15234375 -30.86328125 9.15234375 C-30.86328125 19.05234375 -30.86328125 28.95234375 -30.86328125 39.15234375 C-28.88328125 39.15234375 -26.90328125 39.15234375 -24.86328125 39.15234375 C-24.86328125 39.48234375 -24.86328125 39.81234375 -24.86328125 40.15234375 C-27.17328125 40.15234375 -29.48328125 40.15234375 -31.86328125 40.15234375 C-31.86328125 28.93234375 -31.86328125 17.71234375 -31.86328125 6.15234375 C-28.33640625 4.64671875 -24.80953125 3.14109375 -21.17578125 1.58984375 C-20.07274658 1.11087646 -18.96971191 0.63190918 -17.83325195 0.13842773 C-16.51200317 -0.41349243 -16.51200317 -0.41349243 -15.1640625 -0.9765625 C-14.26856689 -1.3588501 -13.37307129 -1.7411377 -12.45043945 -2.13500977 C-7.88744563 -3.39191068 -4.2481536 -1.72666888 0 0 Z " fill="#B9B2A7" transform="translate(60.86328125,31.84765625)"/>
<path d="M0 0 C2.38564077 0.57584432 4.66682784 1.22227595 7 2 C8.33106622 2.34227417 9.66400079 2.67751743 11 3 C11 3.99 11 4.98 11 6 C11.99 6.33 12.98 6.66 14 7 C13.67 8.32 13.34 9.64 13 11 C6.30525888 13.70977617 -0.99322212 13.58129618 -8 12 C-9.41796875 9.9453125 -9.41796875 9.9453125 -10 8 C-5.375 4 -5.375 4 -2 4 C-1.34 2.68 -0.68 1.36 0 0 Z " fill="#F7F5E8" transform="translate(82,47)"/>
<path d="M0 0 C10.23 0 20.46 0 31 0 C31 2.64 31 5.28 31 8 C20.77 8 10.54 8 0 8 C0 5.36 0 2.72 0 0 Z " fill="#CAC8BB" transform="translate(37,49)"/>
<path d="M0 0 C10.23 0 20.46 0 31 0 C31 1.65 31 3.3 31 5 C20.77 5 10.54 5 0 5 C0 3.35 0 1.7 0 0 Z " fill="#CAC8BB" transform="translate(37,64)"/>
<path d="M0 0 C10.23 0 20.46 0 31 0 C31 1.65 31 3.3 31 5 C20.77 5 10.54 5 0 5 C0 3.35 0 1.7 0 0 Z " fill="#CAC8BB" transform="translate(37,58)"/>
<path d="M0 0 C0.96164063 0.35191406 1.92328125 0.70382813 2.9140625 1.06640625 C3.82671875 1.41316406 4.739375 1.75992188 5.6796875 2.1171875 C6.50968262 2.43026855 7.33967773 2.74334961 8.19482422 3.06591797 C10.125 4.125 10.125 4.125 11.125 7.125 C6.81168677 5.76290108 2.58687863 4.34880441 -1.56640625 2.5546875 C-2.21472412 2.27898926 -2.86304199 2.00329102 -3.53100586 1.71923828 C-4.82041112 1.16638479 -6.10415578 0.60009148 -7.38110352 0.01904297 C-14.51676967 -3.01496034 -19.92885208 -1.04340261 -26.7421875 1.70117188 C-27.52851562 2.02666016 -28.31484375 2.35214844 -29.125 2.6875 C-30.71165307 3.33925219 -32.30012849 3.98659035 -33.890625 4.62890625 C-34.93138184 5.05925171 -34.93138184 5.05925171 -35.99316406 5.49829102 C-37.875 6.125 -37.875 6.125 -40.875 6.125 C-40.875 5.465 -40.875 4.805 -40.875 4.125 C-37.1982529 2.57720301 -33.5072441 1.0667727 -29.8125 -0.4375 C-28.25499023 -1.09395508 -28.25499023 -1.09395508 -26.66601562 -1.76367188 C-16.34035414 -5.92671635 -10.07403125 -3.86078945 0 0 Z " fill="#D53B4D" transform="translate(67.875,30.875)"/>
<path d="M0 0 C3.82017001 1.50078107 5.75370799 3.59183281 8 7 C8.75 10.3125 8.75 10.3125 9 13 C6.36 12.67 3.72 12.34 1 12 C0.01 13.485 0.01 13.485 -1 15 C-1.66 15 -2.32 15 -3 15 C-3 11.37 -3 7.74 -3 4 C-2.01 4.33 -1.02 4.66 0 5 C0 3.35 0 1.7 0 0 Z " fill="#C7ECE5" transform="translate(80,35)"/>
<path d="M0 0 C3.63 0 7.26 0 11 0 C11 2.31 11 4.62 11 7 C7.37 7 3.74 7 0 7 C0 4.69 0 2.38 0 0 Z " fill="#63898C" transform="translate(47,37)"/>
<path d="M0 0 C2 1 2 1 3 3 C1.68 3.33 0.36 3.66 -1 4 C-1 13.9 -1 23.8 -1 34 C0.98 34 2.96 34 5 34 C5 34.33 5 34.66 5 35 C2.69 35 0.38 35 -2 35 C-2 23.78 -2 12.56 -2 1 C-1.34 0.67 -0.68 0.34 0 0 Z " fill="#AFA39A" transform="translate(31,37)"/>
<path d="M0 0 C2.875 -0.1875 2.875 -0.1875 6 0 C6.66 0.99 7.32 1.98 8 3 C9.32 3.66 10.64 4.32 12 5 C8.37 5 4.74 5 1 5 C1 4.67 1 4.34 1 4 C-1.97 3.67 -4.94 3.34 -8 3 C-8 2.67 -8 2.34 -8 2 C-5.36 1.67 -2.72 1.34 0 1 C0 0.67 0 0.34 0 0 Z " fill="#EEF9F7" transform="translate(68,19)"/>
<path d="M0 0 C1.98 0 3.96 0 6 0 C6 0.99 6 1.98 6 3 C7.65 3.33 9.3 3.66 11 4 C11 4.33 11 4.66 11 5 C7.7 5 4.4 5 1 5 C1 4.34 1 3.68 1 3 C-1.97 3 -4.94 3 -8 3 C-8 2.67 -8 2.34 -8 2 C-5.36 1.67 -2.72 1.34 0 1 C0 0.67 0 0.34 0 0 Z " fill="#F2FAF9" transform="translate(13,53)"/>
<path d="M0 0 C2.97 0.33 5.94 0.66 9 1 C8.01 1.33 7.02 1.66 6 2 C6 2.66 6 3.32 6 4 C3.64561267 5.42944945 2.51967567 6.08661261 -0.25 5.625 C-0.8275 5.41875 -1.405 5.2125 -2 5 C-1.34 3.35 -0.68 1.7 0 0 Z " fill="#D6CFC5" transform="translate(14,30)"/>
<path d="M0 0 C0 0.99 0 1.98 0 3 C-3.82989106 4.80230168 -6.78121808 5.19622241 -11 5 C-8.10998474 1.78887193 -4.47884754 -2.23942377 0 0 Z " fill="#BBB6AA" transform="translate(43,34)"/>
<path d="M0 0 C2.475 0.495 2.475 0.495 5 1 C5 1.99 5 2.98 5 4 C5.99 4.33 6.98 4.66 8 5 C8.04254356 6.99954746 8.04080783 9.00041636 8 11 C7 12 7 12 3.4375 12.0625 C2.303125 12.041875 1.16875 12.02125 0 12 C0 11.67 0 11.34 0 11 C1.98 10.34 3.96 9.68 6 9 C6 8.01 6 7.02 6 6 C5.34 5.67 4.68 5.34 4 5 C3.67 4.01 3.34 3.02 3 2 C2.01 1.34 1.02 0.68 0 0 Z " fill="#513834" transform="translate(89,48)"/>
<path d="M0 0 C3.4375 0.8125 3.4375 0.8125 7 2 C7.33 2.99 7.66 3.98 8 5 C5.03 4.01 2.06 3.02 -1 2 C-0.67 1.34 -0.34 0.68 0 0 Z " fill="#CB3A4B" transform="translate(71,33)"/>
<path d="M0 0 C0.33 0.66 0.66 1.32 1 2 C0.01 2 -0.98 2 -2 2 C-1.67 3.32 -1.34 4.64 -1 6 C-1.99 6.33 -2.98 6.66 -4 7 C-4 5.35 -4 3.7 -4 2 C-2.68 1.34 -1.36 0.68 0 0 Z " fill="#6C4141" transform="translate(29,33)"/>
</svg>
