<svg xmlns="http://www.w3.org/2000/svg" height="40" width="48" viewBox="0 0 48 48" version="1.1">
    <path fill="#969696" d="M 35.429688 9.929688 L 46.941406 21.441406 C 47.617188 22.117188 48 23.042969 48 24 C 48 24.957031 47.617188 25.882812 46.941406 26.558594 L 35.429688 38.070312 C 34.828125 38.671875 34.023438 39 33.179688 39 C 31.425781 39 30 37.574219 30 35.820312 L 30 30 L 18 30 C 16.339844 30 15 28.660156 15 27 L 15 21 C 15 19.339844 16.339844 18 18 18 L 30 18 L 30 12.179688 C 30 10.425781 31.425781 9 33.179688 9 C 34.023438 9 34.828125 9.335938 35.429688 9.929688 Z M 15 9 L 9 9 C 7.339844 9 6 10.339844 6 12 L 6 36 C 6 37.660156 7.339844 39 9 39 L 15 39 C 16.660156 39 18 40.339844 18 42 C 18 43.660156 16.660156 45 15 45 L 9 45 C 4.03125 45 0 40.96875 0 36 L 0 12 C 0 7.03125 4.03125 3 9 3 L 15 3 C 16.660156 3 18 4.339844 18 6 C 18 7.660156 16.660156 9 15 9 Z M 15 9 "/>
</svg>
