<?xml version="1.0" encoding="UTF-8"?>
<svg xmlns="http://www.w3.org/2000/svg" xmlns:xlink="http://www.w3.org/1999/xlink" width="48px" height="48px" viewBox="0 0 48 48" version="1.1">
<g id="surface1">
<path style="fill:none;stroke-width:2.4;stroke-linecap:round;stroke-linejoin:round;stroke:rgb(58.823529%,58.823529%,58.823529%);stroke-opacity:1;stroke-miterlimit:4;" d="M 14.515625 35.414062 L 6.402344 35.414062 C 5.902344 35.414062 5.5 35.011719 5.5 34.511719 L 5.5 21.007812 C 5.5 20.511719 5.902344 20.105469 6.402344 20.105469 L 41.597656 20.105469 C 42.097656 20.105469 42.5 20.511719 42.5 21.007812 L 42.5 34.511719 C 42.5 35.011719 42.097656 35.414062 41.597656 35.414062 L 33.484375 35.414062 "/>
<path style="fill:none;stroke-width:2.4;stroke-linecap:round;stroke-linejoin:round;stroke:rgb(58.823529%,58.823529%,58.823529%);stroke-opacity:1;stroke-miterlimit:4;" d="M 14.515625 31.4375 L 33.484375 31.4375 L 33.484375 41.566406 L 14.515625 41.566406 Z M 14.515625 31.4375 "/>
<path style="fill:none;stroke-width:2.4;stroke-linecap:round;stroke-linejoin:round;stroke:rgb(58.823529%,58.823529%,58.823529%);stroke-opacity:1;stroke-miterlimit:4;" d="M 33.484375 20.105469 L 14.515625 20.105469 L 14.515625 6.433594 L 29.484375 6.433594 L 33.484375 10.433594 Z M 33.484375 20.105469 "/>
<path style="fill:none;stroke-width:2.4;stroke-linecap:round;stroke-linejoin:round;stroke:rgb(58.823529%,58.823529%,58.823529%);stroke-opacity:1;stroke-miterlimit:4;" d="M 29.871094 6.433594 L 29.871094 10.042969 L 33.484375 10.042969 "/>
<path style=" stroke:none;fill-rule:nonzero;fill:rgb(58.823529%,58.823529%,58.823529%);fill-opacity:1;" d="M 40.601562 22.898438 C 40.601562 23.3125 40.265625 23.648438 39.851562 23.648438 C 39.4375 23.648438 39.101562 23.3125 39.101562 22.898438 C 39.101562 22.484375 39.4375 22.148438 39.851562 22.148438 C 40.265625 22.148438 40.601562 22.484375 40.601562 22.898438 Z M 40.601562 22.898438 "/>
<path style=" stroke:none;fill-rule:nonzero;fill:rgb(58.823529%,58.823529%,58.823529%);fill-opacity:1;" d="M 37.585938 22.898438 C 37.585938 23.3125 37.25 23.648438 36.835938 23.648438 C 36.421875 23.648438 36.085938 23.3125 36.085938 22.898438 C 36.085938 22.484375 36.421875 22.148438 36.835938 22.148438 C 37.25 22.148438 37.585938 22.484375 37.585938 22.898438 Z M 37.585938 22.898438 "/>
<path style=" stroke:none;fill-rule:nonzero;fill:rgb(58.823529%,58.823529%,58.823529%);fill-opacity:1;" d="M 34.570312 22.898438 C 34.570312 23.3125 34.234375 23.648438 33.820312 23.648438 C 33.40625 23.648438 33.070312 23.3125 33.070312 22.898438 C 33.070312 22.484375 33.40625 22.148438 33.820312 22.148438 C 34.234375 22.148438 34.570312 22.484375 34.570312 22.898438 Z M 34.570312 22.898438 "/>
</g>
</svg>
