<!DOCTYPE svg PUBLIC "-//W3C//DTD SVG 1.1//EN" "http://www.w3.org/Graphics/SVG/1.1/DTD/svg11.dtd">
<!-- Uploaded to: SVG Repo, www.svgrepo.com, Transformed by: SVG Repo Mixer Tools -->
<svg width="64px" height="64px" viewBox="0 0 48 48" id="a" xmlns="http://www.w3.org/2000/svg" fill="#969696">
<g id="SVGRepo_bgCarrier" stroke-width="0"/>
<g id="SVGRepo_tracerCarrier" stroke-linecap="round" stroke-linejoin="round"/>
<g id="SVGRepo_iconCarrier">
<defs>
<style>.b{fill:#969696;}.c{fill:none;stroke:#969696;stroke-linecap:round;stroke-linejoin:round;stroke-width:2.4;}</style>
</defs>
<path class="c" d="M14.5171,35.415H6.4026c-.4985,0-.9026-.4041-.9026-.9026v-13.504c0-.4985,.4041-.9026,.9026-.9026H41.5974c.4985,0,.9026,.4041,.9026,.9026v13.504c0,.4985-.4041,.9026-.9026,.9026h-8.1144"/>
<rect class="c" x="14.5171" y="31.4366" width="18.9659" height="10.13"/>
<path class="c" d="M33.4829,20.1056H14.5171V6.4334h14.9659l4,4v9.6723Z"/>
<polyline class="c" points="29.8724 6.4334 29.8724 10.0439 33.4829 10.0439"/>
<circle class="b" cx="39.8515" cy="22.8983" r=".75"/>
<circle class="b" cx="36.8351" cy="22.8983" r=".75"/>
<circle class="b" cx="33.8187" cy="22.8983" r=".75"/>
</g>
</svg>