<svg xmlns="http://www.w3.org/2000/svg" height="40" width="48" viewBox="0 0 48 48" version="1.1">
    <path fill="#969696" d="M 46.492188 15.617188 C 46.789062 16.433594 46.539062 17.34375 45.890625 17.925781 L 41.832031 21.617188 C 41.933594 22.398438 41.992188 23.195312 41.992188 24 C 41.992188 24.804688 41.933594 25.601562 41.832031 26.382812 L 45.890625 30.074219 C 46.539062 30.65625 46.789062 31.566406 46.492188 32.382812 C 46.078125 33.496094 45.582031 34.566406 45.007812 35.597656 L 44.570312 36.355469 C 43.949219 37.386719 43.257812 38.363281 42.496094 39.28125 C 41.945312 39.957031 41.023438 40.179688 40.199219 39.917969 L 34.976562 38.257812 C 33.722656 39.226562 32.335938 40.03125 30.851562 40.640625 L 29.679688 45.992188 C 29.492188 46.847656 28.835938 47.523438 27.976562 47.664062 C 26.679688 47.878906 25.351562 47.992188 23.992188 47.992188 C 22.632812 47.992188 21.300781 47.878906 20.007812 47.664062 C 19.144531 47.523438 18.488281 46.847656 18.300781 45.992188 L 17.128906 40.640625 C 15.648438 40.03125 14.257812 39.226562 13.003906 38.257812 L 7.789062 39.929688 C 6.964844 40.191406 6.046875 39.957031 5.492188 39.289062 C 4.734375 38.371094 4.039062 37.398438 3.421875 36.367188 L 2.980469 35.605469 C 2.410156 34.574219 1.914062 33.507812 1.5 32.390625 C 1.199219 31.574219 1.453125 30.664062 2.101562 30.085938 L 6.160156 26.390625 C 6.054688 25.601562 6 24.804688 6 24 C 6 23.195312 6.054688 22.398438 6.160156 21.617188 L 2.101562 17.925781 C 1.453125 17.34375 1.199219 16.433594 1.5 15.617188 C 1.914062 14.503906 2.410156 13.433594 2.980469 12.402344 L 3.421875 11.644531 C 4.039062 10.613281 4.734375 9.636719 5.492188 8.71875 C 6.046875 8.042969 6.964844 7.820312 7.789062 8.082031 L 13.011719 9.742188 C 14.269531 8.773438 15.65625 7.96875 17.136719 7.359375 L 18.308594 2.007812 C 18.496094 1.152344 19.152344 0.476562 20.015625 0.335938 C 21.308594 0.113281 22.640625 0 24 0 C 25.359375 0 26.691406 0.113281 27.984375 0.328125 C 28.847656 0.46875 29.503906 1.144531 29.691406 1.996094 L 30.863281 7.351562 C 32.34375 7.960938 33.730469 8.765625 34.988281 9.730469 L 40.210938 8.070312 C 41.035156 7.808594 41.953125 8.042969 42.507812 8.710938 C 43.265625 9.628906 43.960938 10.601562 44.578125 11.632812 L 45.019531 12.394531 C 45.589844 13.425781 46.085938 14.492188 46.5 15.609375 Z M 24 31.5 C 28.140625 31.5 31.5 28.140625 31.5 24 C 31.5 19.859375 28.140625 16.5 24 16.5 C 19.859375 16.5 16.5 19.859375 16.5 24 C 16.5 28.140625 19.859375 31.5 24 31.5 Z M 24 31.5 "/>
</svg>
