<svg xmlns="http://www.w3.org/2000/svg" width="48" height="38" viewBox="0 0 47 38" version="1.1">
    <path fill="#969696" d="M10.574219 11.875 C13.820312 11.875 16.449219 9.214844 16.449219 5.9375 C16.449219 2.660156 13.820312 0 10.574219 0 C7.332031 0 4.699219 2.660156 4.699219 5.9375 C4.699219 9.214844 7.332031 11.875 10.574219 11.875 Z M37.601562 11.875 C40.84375 11.875 43.476562 9.214844 43.476562 5.9375 C43.476562 2.660156 40.84375 0 37.601562 0 C34.355469 0 31.726562 2.660156 31.726562 5.9375 C31.726562 9.214844 34.355469 11.875 37.601562 11.875 Z M0 22.167969 C0 23.039062 0.703125 23.75 1.5625 23.75 L17.234375 23.75 C17.25 23.75 17.265625 23.75 17.289062 23.75 C15.332031 22.007812 14.105469 19.460938 14.105469 16.625 C14.105469 16.0625 14.160156 15.511719 14.246094 14.96875 C13.25 14.503906 12.140625 14.25 10.972656 14.25 L7.835938 14.25 C3.511719 14.25 0 17.796875 0 22.167969 Z M23.5 23.75 C25.261719 23.75 26.871094 23.097656 28.105469 22.019531 C28.289062 21.746094 28.488281 21.480469 28.691406 21.226562 C28.890625 20.980469 29.109375 20.773438 29.351562 20.609375 C30.109375 19.46875 30.550781 18.101562 30.550781 16.625 C30.550781 12.691406 27.390625 9.5 23.5 9.5 C19.609375 9.5 16.449219 12.691406 16.449219 16.625 C16.449219 20.558594 19.609375 23.75 23.5 23.75 Z M28.304688 28.21875 C27.546875 27.78125 26.972656 27.015625 26.773438 26.125 L19.1875 26.125 C13.785156 26.125 9.398438 30.554688 9.398438 36.019531 C9.398438 37.109375 10.273438 38 11.359375 38 L33.429688 38 C33.273438 37.613281 33.195312 37.191406 33.195312 36.78125 L33.195312 36.558594 C33.097656 36.507812 32.996094 36.449219 32.898438 36.390625 L32.710938 36.5 C31.476562 37.21875 29.734375 37.09375 28.691406 35.78125 C28.363281 35.367188 28.058594 34.925781 27.78125 34.476562 L27.765625 34.445312 L27.589844 34.140625 L27.574219 34.109375 C27.324219 33.652344 27.105469 33.175781 26.914062 32.679688 C26.3125 31.105469 27.078125 29.515625 28.308594 28.796875 L28.507812 28.6875 C28.507812 28.625 28.507812 28.574219 28.507812 28.515625 C28.507812 28.457031 28.507812 28.402344 28.507812 28.34375 L28.308594 28.234375 Z M39.164062 14.25 L36.035156 14.25 C34.867188 14.25 33.757812 14.507812 32.761719 14.96875 C32.855469 15.503906 32.898438 16.0625 32.898438 16.625 C32.898438 17.917969 32.644531 19.140625 32.1875 20.261719 C32.371094 20.328125 32.546875 20.410156 32.710938 20.507812 L32.898438 20.617188 C32.996094 20.558594 33.089844 20.5 33.195312 20.445312 L33.195312 20.226562 C33.195312 18.785156 34.171875 17.324219 35.824219 17.0625 C36.402344 16.972656 36.996094 16.921875 37.601562 16.921875 C38.203125 16.921875 38.796875 16.964844 39.378906 17.0625 C41.03125 17.324219 42.007812 18.785156 42.007812 20.226562 L42.007812 20.445312 C42.101562 20.5 42.203125 20.558594 42.300781 20.617188 L42.492188 20.507812 C43.726562 19.785156 45.464844 19.914062 46.507812 21.226562 C46.675781 21.433594 46.839844 21.65625 46.992188 21.871094 C46.839844 17.632812 43.394531 14.25 39.164062 14.25 Z M45.867188 26.414062 C46.332031 26.148438 46.566406 25.589844 46.367188 25.078125 C46.214844 24.671875 46.03125 24.277344 45.824219 23.898438 L45.65625 23.601562 C45.429688 23.222656 45.179688 22.867188 44.90625 22.523438 C44.570312 22.101562 43.972656 22.027344 43.511719 22.304688 L43.296875 22.429688 C42.625 22.820312 41.800781 22.726562 41.125 22.332031 C40.449219 21.9375 39.941406 21.257812 39.941406 20.46875 L39.941406 20.21875 C39.941406 19.675781 39.582031 19.191406 39.054688 19.109375 C38.578125 19.039062 38.09375 19 37.59375 19 C37.09375 19 36.609375 19.039062 36.132812 19.109375 C35.601562 19.191406 35.242188 19.675781 35.242188 20.21875 L35.242188 20.46875 C35.242188 21.257812 34.734375 21.9375 34.058594 22.332031 C33.382812 22.726562 32.5625 22.820312 31.886719 22.429688 L31.671875 22.304688 C31.210938 22.035156 30.617188 22.109375 30.277344 22.523438 C30.007812 22.867188 29.757812 23.230469 29.527344 23.609375 L29.359375 23.898438 C29.15625 24.277344 28.972656 24.671875 28.816406 25.078125 C28.625 25.582031 28.855469 26.140625 29.316406 26.40625 L29.527344 26.53125 C30.203125 26.925781 30.535156 27.707031 30.535156 28.492188 C30.535156 29.277344 30.203125 30.058594 29.527344 30.453125 L29.308594 30.578125 C28.847656 30.84375 28.609375 31.402344 28.808594 31.90625 C28.964844 32.316406 29.148438 32.699219 29.351562 33.078125 L29.527344 33.382812 C29.75 33.761719 30 34.117188 30.269531 34.460938 C30.609375 34.882812 31.203125 34.957031 31.667969 34.683594 L31.878906 34.554688 C32.554688 34.164062 33.378906 34.257812 34.054688 34.652344 C34.730469 35.046875 35.234375 35.730469 35.234375 36.515625 L35.234375 36.769531 C35.234375 37.308594 35.59375 37.792969 36.125 37.875 C36.601562 37.949219 37.085938 37.984375 37.585938 37.984375 C38.085938 37.984375 38.570312 37.949219 39.046875 37.875 C39.574219 37.792969 39.933594 37.308594 39.933594 36.769531 L39.933594 36.515625 C39.933594 35.730469 40.441406 35.046875 41.117188 34.652344 C41.792969 34.257812 42.617188 34.164062 43.292969 34.554688 L43.503906 34.683594 C43.96875 34.949219 44.5625 34.875 44.898438 34.460938 C45.171875 34.117188 45.421875 33.761719 45.640625 33.382812 L45.816406 33.070312 C46.023438 32.691406 46.207031 32.308594 46.359375 31.898438 C46.550781 31.394531 46.324219 30.835938 45.863281 30.570312 L45.640625 30.445312 C44.964844 30.050781 44.636719 29.273438 44.636719 28.484375 C44.636719 27.699219 44.964844 26.917969 45.640625 26.527344 L45.863281 26.398438 Z M34.664062 28.5 C34.664062 26.859375 35.976562 25.53125 37.601562 25.53125 C39.222656 25.53125 40.539062 26.859375 40.539062 28.5 C40.539062 30.140625 39.222656 31.46875 37.601562 31.46875 C35.976562 31.46875 34.664062 30.140625 34.664062 28.5 Z"/>
</svg>
